<?xml version="1.0" encoding="UTF-8"?>
<svg width="62.442mm" height="62.442mm" version="1.1" viewBox="0 0 62.442 62.442" xml:space="preserve" xmlns="http://www.w3.org/2000/svg"><g transform="translate(-68.922 -103.68)"><path d="m100.14 146.6c-6.4558 0-11.695-5.2388-11.695-11.695 0-6.4558 5.2388-11.695 11.695-11.695 6.4558 0 11.695 5.2388 11.695 11.695 0 6.4823-5.2388 11.695-11.695 11.695zm0-19.5c-4.3127 0-7.8052 3.4925-7.8052 7.8052 0 4.3127 3.4925 7.8052 7.8052 7.8052 4.3127 0 7.8052-3.4925 7.8052-7.8052 0-4.3127-3.4925-7.8052-7.8052-7.8052zm28.099-0.52917c-1.1377-0.23813-3.6248-0.66146-3.6248-0.66146l-0.79375-1.9315s1.4817-2.0902 2.0902-3.0692c1.0054-1.561 0.79375-3.5719-0.52917-4.8948l-6.3765-6.3764c-1.3088-1.3088-3.3724-1.5-4.8683-0.50271-0.9525 0.635-3.0692 2.0902-3.0692 2.0902l-1.9314-0.79375s-0.4498-2.54-0.68792-3.6512c-0.37042-1.7992-1.9579-3.0956-3.81-3.0956h-8.9958c-1.8521 0-3.4396 1.2965-3.81 3.0956-0.23813 1.1377-0.68792 3.6512-0.68792 3.6512l-1.9315 0.79375s-2.0902-1.4817-3.0692-2.0902c-1.7075-1.0928-3.6877-0.673-4.8683 0.50271-2.1343 2.1255-4.2686 4.251-6.4029 6.3764-1.2991 1.2938-1.5081 3.3338-0.52917 4.8948 0.635 0.9525 2.0902 3.0692 2.0902 3.0692l-0.79375 1.9315s-2.54 0.44979-3.6512 0.68792c-1.7727 0.37041-3.0692 1.9579-3.0692 3.81v8.9958c0 1.8521 1.2965 3.4396 3.0956 3.81 1.1112 0.23813 3.6512 0.68792 3.6512 0.68792l0.79374 1.9315s-1.4817 2.0902-2.0902 3.0692c-1.0054 1.5346-0.79375 3.5719 0.52916 4.8948 2.1255 2.1255 6.3765 6.3765 6.3765 6.3765 1.3088 1.3088 3.3724 1.5 4.8683 0.50271 0.9525-0.635 3.0692-2.0902 3.0692-2.0902l1.9315 0.79375s0.45532 2.5388 0.68792 3.6512c0.37595 1.798 1.9579 3.0956 3.81 3.0956h8.9958c1.8521 0 3.4396-1.2965 3.81-3.0956 0.23812-1.1377 0.68792-3.6512 0.68792-3.6512l1.9314-0.79375c2.3428 1.7594 5.3268 4.1982 7.9375 1.5875 0 0 4.251-4.251 6.3765-6.3765 1.2965-1.2964 1.5081-3.3602 0.50271-4.8948-0.635-0.97896-2.0902-3.0427-2.0902-3.0427l0.82021-1.9579s2.5135-0.42334 3.6248-0.66146c1.7992-0.37042 3.1221-1.9579 3.1221-3.81v-9.0223c0-1.8521-1.2965-3.466-3.1221-3.8365zm-0.79375 12.832c-1.7727 0.37042-5.8473 0.97896-5.8473 0.97896l-2.4077 5.7944s2.4342 3.3073 3.4396 4.8154l-6.35 6.4029c-1.5081-0.97896-4.8154-3.4396-4.8154-3.4396l-5.7944 2.4077s-0.635 4.101-1.0054 5.8473h-9.0223c-0.37042-1.7462-1.0054-5.8473-1.0054-5.8473l-5.7944-2.4077s-3.3338 2.4606-4.8419 3.4396l-6.3765-6.3765c0.97896-1.5081 3.4131-4.8419 3.4131-4.8419l-2.4077-5.7944s-4.101-0.635-5.8473-1.0054v-8.9958c1.7462-0.37042 5.8473-1.0054 5.8473-1.0054l2.4077-5.7944s-2.4342-3.3073-3.4131-4.8154l6.3765-6.3765c1.5081 0.97896 4.8419 3.4131 4.8419 3.4131l5.7944-2.4077s0.635-4.101 1.0054-5.8473h8.9958c0.37042 1.7462 1.0054 5.8473 1.0054 5.8473l5.7944 2.4077s3.3338-2.4606 4.8419-3.4131l6.3764 6.3765c-0.97895 1.5081-3.4131 4.8419-3.4131 4.8419l2.4077 5.7944s4.0746 0.635 5.8473 0.97896z" fill="#34ff66" stroke-width=".26458"/></g></svg>
