<?xml version="1.0" encoding="UTF-8"?>
<svg version="1.1" viewBox="0 0 333.64 29.898" xml:space="preserve" xmlns="http://www.w3.org/2000/svg"><g transform="translate(51.163 -109.27)"><path d="m-47.459 137.45v-1.7198h-0.79375v-1.8521h-2.1167v-3.4396h-0.79375v-15.875h2.9104v-5.2917h17.198v2.3812h2.1167v6.35h-14.552v12.435h12.435v2.3812h2.1167v6.35h-18.521zm18.256-1.4552v-2.9104h-1.8521v0.52917h1.3229v4.7625h-16.933v-2.6458h-0.52917v3.175h17.992zm-0.79375 0v-2.1167h-1.0583v1.8521h-15.346v2.3812h16.404zm-18.256-2.6458v-0.26459h-1.3229v-2.6458h-0.52917v3.175h1.8521zm0-1.7198v-1.1906h-1.0583v2.3812h1.0583zm3.7042-7.9375v-6.7469h14.552v-4.2333h-1.0583v1.8521h-14.552v15.875h1.0583zm0.79375 0.39687v-6.35h14.552v-5.8208h-1.8521v0.52916h1.3229v4.7625h-14.552v13.229h0.52917zm16.669 13.361v-1.7198h-0.79375v-26.458h5.5562v2.3812h2.1167v8.2021h6.8792v-10.583h5.5562v2.3812h2.1167v27.517h-6.8792v-3.4396h-0.79375v-7.1438h-6.8792v10.583h-6.8792zm6.6146-3.8365v-5.2917h7.1438v-0.52916h-7.6729v10.583h-5.2917v-2.6458h-0.52917v3.175h6.35zm14.552-8.2021v-13.494h-1.8521v0.52916h1.3229v25.929h-5.2917v-2.6458h-0.52917v3.175h6.35zm-15.346 7.4083v-5.2917h7.9375v-2.3812h-8.9958v10.583h-3.7042v2.3812h4.7625zm14.552-7.4083v-12.7h-1.0583v23.019h-3.7042v2.3812h4.7625zm-14.552-9.1281v-3.5719h-1.0583v7.1438h1.0583zm0.79375-0.39687v-3.9688h-1.8521v0.52916h1.3229v7.4083h0.52917zm16.669 21.564v-1.7198h-0.79375v-26.458h5.5562v2.3812h2.1167v27.517h-6.8792zm6.6146-12.039v-13.494h-1.8521v0.52916h1.3229v25.929h-5.2917v-2.6458h-0.52917v3.175h6.35zm-0.79375 0v-12.7h-1.0583v23.019h-3.7042v2.3812h4.7625zm2.9104 12.039v-1.7198h-0.79375v-26.458h17.198v2.3812h2.1167v2.9104h0.79375v2.3812h2.1167v6.35h-2.9104v5.2917h-11.642v10.583h-6.8792zm6.6146-3.8365v-5.2917h11.642v-5.2917h2.9104v-5.8208h-1.8521v0.52917h1.3229v4.7625h-2.9104v5.2917h-11.642v10.583h-5.2917v-2.6458h-0.52917v3.175h6.35zm-0.79375-0.79375v-5.2917h11.642v-5.2917h2.9104v-4.2333h-1.0583v1.8521h-2.9104v5.2917h-11.642v10.583h-3.7042v2.3812h4.7625zm0-14.42v-1.4552h7.9375v-2.3812h-8.9958v5.2917h1.0583zm0.79375 0.39687v-1.0583h7.1438v-0.52917h-7.6729v2.6458h0.52917zm7.1438 0.1323v-0.92605h-6.8792v1.8521h6.8792zm3.7042-5.2917v-0.92604h-1.0583v1.8521h1.0583zm0.79375-0.39688v-1.3229h-1.8521v0.52916h1.3229v2.1167h0.52917zm25.4 24.209v-1.7198h-0.79375v-1.8521h-2.1167v-3.4396h-0.79375v-5.2917h2.9104v-1.8521h-2.1167v-3.4396h-0.79375v-5.2917h2.9104v-5.2917h14.287v2.3812h2.1167v2.9104h0.79375v2.3812h2.1167v6.35h-2.9104v1.8521h0.79375v2.3812h2.1167v6.35h-2.9104v5.2917h-15.61zm15.346-1.1906v-2.6458h2.9104v-5.8208h-1.8521v0.52916h1.3229v4.7625h-2.9104v5.2917h-14.023v-2.6458h-0.52917v3.175h15.081zm-0.79375-0.79375v-2.6458h2.9104v-4.2333h-1.0583v1.8521h-2.9104v5.2917h-12.435v2.3812h13.494zm-15.346-2.1167v-0.26459h-1.3229v-2.6458h-0.52917v3.175h1.8521zm0-1.7198v-1.1906h-1.0583v2.3812h1.0583zm3.7042-2.6458v-1.4552h7.9375v-2.3812h-8.9958v5.2917h1.0583zm0.79375 0.39688v-1.0583h7.1438v-0.52916h-7.6729v2.6458h0.52917zm7.1438 0.13229v-0.92604h-6.8792v1.8521h6.8792zm3.7042-5.8208v-1.4552h2.9104v-4.2333h-1.0583v1.8521h-2.9104v5.2917h1.0583zm0.79375 0.39687v-1.0583h2.9104v-5.8208h-1.8521v0.52917h1.3229v4.7625h-2.9104v2.6458h0.52917zm-16.14-1.3229v-0.26458h-1.3229v-2.6458h-0.52917v3.175h1.8521zm0-1.7198v-1.1906h-1.0583v2.3812h1.0583zm3.7042-2.6458v-1.4552h7.9375v-2.3812h-8.9958v5.2917h1.0583zm0.79375 0.39687v-1.0583h7.1438v-0.52917h-7.6729v2.6458h0.52917zm7.1438 0.1323v-0.92605h-6.8792v1.8521h6.8792zm3.7042-5.2917v-0.92604h-1.0583v1.8521h1.0583zm0.79375-0.39688v-1.3229h-1.8521v0.52916h1.3229v2.1167h0.52917zm16.669 24.209v-1.7198h-0.79375v-26.458h20.108v2.3812h2.1167v6.35h-14.552v1.8521h6.6146v2.3812h2.1167v6.35h-8.7312v1.8521h12.435v2.3812h2.1167v6.35h-21.431zm21.167-1.4552v-2.9104h-1.8521v0.52917h1.3229v4.7625h-19.844v-2.6458h-0.52917v3.175h20.902zm-0.79375 0v-2.1167h-1.0583v1.8521h-18.256v2.3812h19.315zm-14.552-7.0115v-1.4552h8.7312v-4.2333h-1.0583v1.8521h-8.7312v5.2917h1.0583zm0.79375 0.39688v-1.0583h8.7312v-5.8208h-1.8521v0.52917h1.3229v4.7625h-8.7312v2.6458h0.52917zm-0.79375-10.98v-1.4552h14.552v-4.2333h-1.0583v1.8521h-14.552v5.2917h1.0583zm0.79375 0.39687v-1.0583h14.552v-5.8208h-1.8521v0.52916h1.3229v4.7625h-14.552v2.6458h0.52917zm16.669 18.653v-1.7198h-0.79375v-26.458h8.4667v2.3812h2.1167v2.9104h0.79375v2.3812h2.1167v2.9104h3.9688v-5.2917h2.9104v-5.2917h8.4667v2.3812h2.1167v27.517h-6.8792v-3.4396h-0.79375v-12.435h-1.0583v5.2917h-2.9104v5.2917h-6.8792v-3.4396h-0.79375v-1.8521h-2.1167v-3.4396h-0.79375v-1.8521h-1.0583v15.875h-6.8792zm6.6146-6.4823v-7.9375h1.3229v-0.52917h-1.8521v15.875h-5.2917v-2.6458h-0.52917v3.175h6.35zm23.283-5.5562v-13.494h-1.8521v0.52916h1.3229v25.929h-5.2917v-2.6458h-0.52917v3.175h6.35zm-24.077 4.7625v-7.9375h2.1167v-2.3812h-3.175v15.875h-3.7042v2.3812h4.7625zm23.283-4.7625v-12.7h-1.0583v23.019h-3.7042v2.3812h4.7625zm-10.848 5.5562v-2.6458h2.9104v-5.2917h1.3229v-0.52917h-1.8521v5.2917h-2.9104v5.2917h-5.2917v-2.6458h-0.52916v3.175h6.35zm-0.79375-0.79375v-2.6458h2.9104v-5.2917h2.1167v-2.3812h-3.175v5.2917h-2.9104v5.2917h-3.7042v2.3812h4.7625zm-6.6146-2.1167v-0.26458h-1.3229v-2.6458h-0.52917v3.175h1.8521zm0-1.7198v-1.1906h-1.0583v2.3812h1.0583zm0.79375-7.4083v-0.92605h-1.0583v1.8521h1.0583zm0.79375-0.39688v-1.3229h-1.8521v0.52917h1.3229v2.1167h0.52916zm-3.7042-4.8948v-0.92604h-1.0583v1.8521h1.0583zm0.79375-0.39688v-1.3229h-1.8521v0.52916h1.3229v2.1167h0.52917zm25.4 24.209v-1.7198h-0.79375v-1.8521h-2.1167v-3.4396h-0.79375v-21.167h5.5562v2.3812h2.1167v18.785h9.7896v-21.167h5.5562v2.3812h2.1167v22.225h-2.9104v5.2917h-18.521zm18.256-1.1906v-2.6458h2.9104v-21.696h-1.8521v0.52916h1.3229v20.638h-2.9104v5.2917h-16.933v-2.6458h-0.52917v3.175h17.992zm-0.79375-0.79375v-2.6458h2.9104v-20.108h-1.0583v17.727h-2.9104v5.2917h-15.346v2.3812h16.404zm-18.256-2.1167v-0.26459h-1.3229v-2.6458h-0.52917v3.175h1.8521zm0-1.7198v-1.1906h-1.0583v2.3812h1.0583zm3.7042-10.054v-8.8635h-1.0583v17.727h1.0583zm0.79375-0.39688v-9.2604h-1.8521v0.52916h1.3229v17.992h0.52916zm19.579 16.272v-1.7198h-0.79375v-26.458h5.5562v2.3812h2.1167v18.785h12.435v2.3812h2.1167v6.35h-21.431zm21.167-1.4552v-2.9104h-1.8521v0.52917h1.3229v4.7625h-19.844v-2.6458h-0.52917v3.175h20.902zm-0.79375 0v-2.1167h-1.0583v1.8521h-18.256v2.3812h19.315zm-14.552-14.42v-8.8635h-1.0583v17.727h1.0583zm0.79375-0.39688v-9.2604h-1.8521v0.52916h1.3229v17.992h0.52917zm16.669 16.272v-1.7198h-0.79375v-21.167h2.9104v-5.2917h14.288v2.3812h2.1167v2.9104h0.79375v2.3812h2.1167v22.225h-6.8792v-3.4396h-0.79375v-7.1438h-6.8792v10.583h-6.8792zm6.6146-3.8365v-5.2917h7.1438v-0.52916h-7.6729v10.583h-5.2917v-2.6458h-0.52917v3.175h6.35zm14.552-5.5562v-10.848h-1.8521v0.52917h1.3229v20.638h-5.2917v-2.6458h-0.52916v3.175h6.35zm-15.346 4.7625v-5.2917h7.9375v-2.3812h-8.9958v10.583h-3.7042v2.3812h4.7625zm14.552-4.7625v-10.054h-1.0583v17.727h-3.7042v2.3812h4.7625zm-14.552-9.6573v-1.4552h7.9375v-2.3812h-8.9958v5.2917h1.0583zm0.79375 0.39687v-1.0583h7.1438v-0.52917h-7.6729v2.6458h0.52916zm7.1438 0.1323v-0.92605h-6.8792v1.8521h6.8792zm3.7042-5.2917v-0.92604h-1.0583v1.8521h1.0583zm0.79375-0.39688v-1.3229h-1.8521v0.52916h1.3229v2.1167h0.52917zm13.758 24.209v-1.7198h-0.79375v-17.727h-7.9375v-3.4396h-0.79375v-5.2917h23.019v2.3812h2.1167v6.35h-8.7312v21.167h-6.8792zm6.6146-9.1281v-10.583h8.7312v-5.8208h-1.8521v0.52916h1.3229v4.7625h-8.7312v21.167h-5.2917v-2.6458h-0.52916v3.175h6.35zm-0.79375-0.79375v-10.583h8.7312v-4.2333h-1.0583v1.8521h-8.7312v21.167h-3.7042v2.3812h4.7625zm-6.6146-10.054v-0.26459h-7.1438v-2.6458h-0.52916v3.175h7.6729zm0-1.7198v-1.1906h-6.8792v2.3812h6.8792zm21.167 21.696v-1.7198h-0.79375v-1.8521h-2.1167v-3.4396h-0.79375v-15.875h2.9104v-5.2917h17.198v2.3812h2.1167v2.9104h0.79375v2.3812h2.1167v16.933h-2.9104v5.2917h-18.521zm18.256-1.1906v-2.6458h2.9104v-16.404h-1.8521v0.52917h1.3229v15.346h-2.9104v5.2917h-16.933v-2.6458h-0.52917v3.175h17.992zm-0.79375-0.79375v-2.6458h2.9104v-14.817h-1.0583v12.435h-2.9104v5.2917h-15.346v2.3812h16.404zm-18.256-2.1167v-0.26459h-1.3229v-2.6458h-0.52916v3.175h1.8521zm0-1.7198v-1.1906h-1.0583v2.3812h1.0583zm3.7042-7.9375v-6.7469h10.848v-2.3812h-11.906v15.875h1.0583zm0.79375 0.39687v-6.35h10.054v-0.52917h-10.583v13.229h0.52917zm10.054 0.13229v-6.2177h-9.7896v12.435h9.7896zm3.7042-10.583v-0.92604h-1.0583v1.8521h1.0583zm0.79375-0.39688v-1.3229h-1.8521v0.52916h1.3229v2.1167h0.52917zm5.0271 24.209v-1.7198h-0.79375v-26.458h17.198v2.3812h2.1167v2.9104h0.79375v2.3812h2.1167v6.35h-2.9104v1.8521h0.79375v2.3812h2.1167v11.642h-6.8792v-3.4396h-0.79375v-7.1438h-6.8792v10.583h-6.8792zm6.6146-3.8365v-5.2917h7.1438v-0.52916h-7.6729v10.583h-5.2917v-2.6458h-0.52917v3.175h6.35zm14.552-0.26458v-5.5562h-1.8521v0.52916h1.3229v10.054h-5.2917v-2.6458h-0.52916v3.175h6.35zm-15.346-0.52917v-5.2917h7.9375v-2.3812h-8.9958v10.583h-3.7042v2.3812h4.7625zm14.552 0.52917v-4.7625h-1.0583v7.1438h-3.7042v2.3812h4.7625zm-2.9104-9.6573v-1.4552h2.9104v-4.2333h-1.0583v1.8521h-2.9104v5.2917h1.0583zm0.79375 0.39687v-1.0583h2.9104v-5.8208h-1.8521v0.52917h1.3229v4.7625h-2.9104v2.6458h0.52917zm-12.435-5.6885v-1.4552h7.9375v-2.3812h-8.9958v5.2917h1.0583zm0.79375 0.39687v-1.0583h7.1438v-0.52917h-7.6729v2.6458h0.52916zm7.1438 0.1323v-0.92605h-6.8792v1.8521h6.8792zm3.7042-5.2917v-0.92604h-1.0583v1.8521h1.0583zm0.79375-0.39688v-1.3229h-1.8521v0.52916h1.3229v2.1167h0.52917zm-251.09 13.626v-1.7198h-0.79375v-5.2917h14.287v2.3812h2.1167v6.35h-15.61zm15.346-1.4552v-2.9104h-1.8521v0.52917h1.3229v4.7625h-14.023v-2.6458h-0.52917v3.175h15.081zm-0.79375 0v-2.1167h-1.0583v1.8521h-12.435v2.3812h13.494z" fill="#34ff66"/></g></svg>
