<?xml version="1.0" encoding="UTF-8"?>
<svg width="682.67" height="682.67" version="1.1" viewBox="0 0 682.67 682.67" xmlns="http://www.w3.org/2000/svg">
 <g transform="matrix(.55797 0 0 .55797 150.88 150.88)">
  <rect x="-270.4" y="-270.38" width="1223.5" height="1223.5" ry="0" fill="#222" stroke-width="1.7898"/>
  <path d="m0 0v682.67zm682.66 0v682.67zm-541.33 113.33v57.332h57.332v56h-57.332v57.334h-56v57.334h-57.334v170.67h57.334v-113.33h56v113.33h57.332v57.334h114.67v-57.334h-113.33v-56h282.67v56h-113.33v57.334h114.67v-57.334h57.334v-113.33h56v113.33h57.332v-170.67h-57.332v-57.334h-56v-57.334h-57.334v-56h57.334v-57.332h-58.668v57.332h-56v56h-170.67v-56h-56v-57.332zm58.666 172h56v56h-56zm226.67 0h56v56h-56z" fill="#34ff66"/>
 </g>
</svg>
