<?xml version="1.0" encoding="UTF-8"?>
<!-- Created with Inkscape (http://www.inkscape.org/) -->
<svg width="682.67" height="682.67" version="1.1" viewBox="0 0 682.67 682.67" xmlns="http://www.w3.org/2000/svg">
 <g>
  <path x="0.006844738" y="0.0043745749" width="682.659" height="682.66583" ry="106.67994" d="m106.69 0.0043746h469.3c59.101 0 106.68 47.579 106.68 106.68v469.31c0 59.101-47.579 106.68-106.68 106.68h-469.3c-59.101 0-106.68-47.579-106.68-106.68v-469.31c0-59.101 47.579-106.68 106.68-106.68z" fill="#222"/>
  <path d="m0 0v682.67h0.0058594v-682.67zm682.66 0v682.67h4e-3v-682.67zm-541.33 113.33v57.332h57.332v56h-57.332v57.334h-56v57.334h-57.334v170.67h57.334v-113.33h56v113.33h57.332v57.334h114.67v-57.334h-113.33v-56h282.67v56h-113.33v57.334h114.67v-57.334h57.334v-113.33h56v113.33h57.332v-170.67h-57.332v-57.334h-56v-57.334h-57.334v-56h57.334v-57.332h-58.668v57.332h-56v56h-170.67v-56h-56v-57.332zm58.666 172h56v56h-56zm226.67 0h56v56h-56z" fill="#34ff66"/>
 </g>
</svg>
